<svg xmlns="http://www.w3.org/2000/svg" fill="none" viewBox="-0.5 -0.5 16 16" id="Bill--Streamline-Solar" height="16" width="16"><desc>Bill Streamline Icon: https://streamlinehq.com</desc><g id="Line Duotone/Money/Bill"><path id="Vector" stroke="#737373" d="M11.015625 13.125125c0.40099999999999997 -0.3564375 1.00525 -0.3564375 1.40625 0 0.2724375 0.242125 0.703125 0.04875 0.703125 -0.31575V2.1907437499999998c0 -0.36451875 -0.4306875 -0.557925 -0.703125 -0.31575 -0.40099999999999997 0.3564375 -1.00525 0.3564375 -1.40625 0s-1.00525 -0.3564375 -1.40625 0 -1.00525 0.3564375 -1.40625 0 -1.00525 -0.3564375 -1.40625 0 -1.00525625 0.3564375 -1.40625 0c-0.40099375 -0.3564375 -1.00525625 -0.3564375 -1.40625 0 -0.40099375 0.3564375 -1.00525625 0.3564375 -1.40625 0C2.30568125 1.63281875 1.875 1.826225 1.875 2.1907437499999998V12.809375000000001c0 0.36450000000000005 0.43068125 0.557875 0.703125 0.31575 0.40099375 -0.3564375 1.00525625 -0.3564375 1.40625 0 0.40099375 0.3564375 1.00525625 0.3564375 1.40625 0 0.40099375 -0.3564375 1.00525 -0.3564375 1.40625 0s1.00525 0.3564375 1.40625 0 1.00525 -0.3564375 1.40625 0 1.00525 0.3564375 1.40625 0Z" stroke-width="1"></path><path id="Vector_2" stroke="#000000" stroke-linecap="round" d="M4.6875 9.6875h5.625" stroke-width="1"></path><path id="Vector_3" stroke="#000000" stroke-linecap="round" d="M4.6875 7.5h5.625" stroke-width="1"></path><path id="Vector_4" stroke="#000000" stroke-linecap="round" d="M4.6875 5.3125h5.625" stroke-width="1"></path></g></svg>
