<svg xmlns="http://www.w3.org/2000/svg" fill="none" viewBox="-0.5 -0.5 16 16" id="Mailbox--Streamline-Solar" height="16" width="16"><desc>Mailbox Streamline Icon: https://streamlinehq.com</desc><g id="Line Duotone/Messages Conversation/Mailbox"><path id="Vector" stroke="#737373" stroke-linecap="round" d="M6.5625 13.75v-1.25m2.5 1.25v-1.25" stroke-width="1"></path><path id="Vector_2" fill="#000000" d="M6.875 12.5v0.46875h0.46875V12.5H6.875Zm1.875 -0.46875c-0.258875 0 -0.46875 0.20987499999999998 -0.46875 0.46875s0.20987499999999998 0.46875 0.46875 0.46875v-0.9375Zm2.1875 -8.75c-0.258875 0 -0.46875 0.20986875 -0.46875 0.46875s0.20987499999999998 0.46875 0.46875 0.46875v-0.9375ZM4.375 3.28125c-0.25888125 0 -0.46875 0.20986875 -0.46875 0.46875s0.20986875 0.46875 0.46875 0.46875v-0.9375Zm1.25 8.75c-0.25888125 0 -0.46875 0.20987499999999998 -0.46875 0.46875s0.20986875 0.46875 0.46875 0.46875v-0.9375Zm3.75 0.9375c0.258875 0 0.46875 -0.20987499999999998 0.46875 -0.46875s-0.20987499999999998 -0.46875 -0.46875 -0.46875v0.9375Zm-2.96875 -5.9375V12.5h0.9375v-5.46875h-0.9375Zm0.46875 5H2.64535v0.9375H6.875v-0.9375Zm-5.15625 -1.1591875V7.03125h-0.9375v3.8408124999999997h0.9375ZM2.64535 12.03125c-0.44656250000000003 0 -0.9266000000000001 -0.4485625 -0.9266000000000001 -1.1591875h-0.9375c0 1.0875625 0.7694 2.0966875 1.8640999999999999 2.0966875v-0.9375ZM4.0625 4.21875c1.22923125 0 2.34375 1.18880625 2.34375 2.8125h0.9375c0 -2.000675 -1.40388125 -3.75 -3.28125 -3.75v0.9375Zm0 -0.9375c-1.87736875 0 -3.28125 1.7493249999999998 -3.28125 3.75h0.9375c0 -1.6236937500000002 1.11451875 -2.8125 2.34375 -2.8125v-0.9375Zm9.21875 3.75v3.8595625h0.9375V7.03125h-0.9375Zm-0.9105625 5H8.75v0.9375h3.6206875v-0.9375Zm0.9105625 -1.1404375c0 0.70025 -0.47287500000000005 1.1404375 -0.9105625 1.1404375v0.9375c1.0858750000000001 0 1.8480625000000002 -1.00075 1.8480625000000002 -2.0779375h-0.9375Zm0.9375 -3.8595625c0 -2.000675 -1.403875 -3.75 -3.28125 -3.75v0.9375c1.22925 0 2.34375 1.18880625 2.34375 2.8125h0.9375ZM4.375 4.21875h6.875v-0.9375H4.375v0.9375Zm1.25 8.75h3.75v-0.9375H5.625v0.9375Z" stroke-width="1"></path><path id="Vector_3" stroke="#000000" stroke-linecap="round" d="M3.125 10h1.875" stroke-width="1"></path><path id="Vector_4" stroke="#737373" stroke-linecap="round" d="M10 6.177700000000001V3.38200625m0 0V1.64699375c0 -0.14758749999999998 0.10475 -0.27441875 0.24962499999999999 -0.30234375l0.3038125 -0.05853125c0.36768750000000006 -0.07085 0.7478750000000001 -0.037025 1.0973125000000001 0.09763124999999999l0.0494375 0.01906875c0.3464375 0.13349375 0.7252500000000001 0.15843125 1.0861875 0.07150000000000001 0.1725625 -0.04156875 0.33862499999999995 0.08923125000000001 0.33862499999999995 0.2667625v1.3884374999999998c0 0.14810625 -0.10149999999999999 0.276925 -0.2454375 0.31160625000000003l-0.041625 0.010025c-0.39449999999999996 0.09501875 -0.8085625000000001 0.0677625 -1.1871875 -0.07815625 -0.3494375 -0.13465 -0.729625 -0.16848124999999997 -1.0973125000000001 -0.09763124999999999L10 3.38200625Z" stroke-width="1"></path></g></svg>
