<svg xmlns="http://www.w3.org/2000/svg" fill="none" viewBox="-0.5 -0.5 16 16" id="Map-Point-Wave--Streamline-Solar" height="16" width="16"><desc>Map Point Wave Streamline Icon: https://streamlinehq.com</desc><g id="Line Duotone/Map Location/Map Point Wave"><path id="Vector" stroke="#737373" d="M3.125 5.32165C3.125 3.0729374999999997 5.08375625 1.25 7.5 1.25c2.4162500000000002 0 4.375 1.8229375 4.375 4.07165 0 2.2311 -1.396375 4.8345375 -3.5749375 5.765599999999999 -0.507875 0.217 -1.09225 0.217 -1.600125 0C4.52135 10.1561875 3.125 7.5527500000000005 3.125 5.32165Z" stroke-width="1"></path><path id="Vector_2" stroke="#000000" d="M8.75 5.625c0 0.690375 -0.559625 1.25 -1.25 1.25s-1.25 -0.559625 -1.25 -1.25c0 -0.69035625 0.559625 -1.25 1.25 -1.25s1.25 0.55964375 1.25 1.25Z" stroke-width="1"></path><path id="Vector_3" stroke="#000000" stroke-linecap="round" d="M13.1003125 9.6875c0.415875 0.3765625 0.6496875000000001 0.801 0.6496875000000001 1.25 0 1.5533125 -2.79825 2.8125 -6.25 2.8125 -3.45178125 0 -6.25 -1.2591875 -6.25 -2.8125 0 -0.449 0.233825 -0.8734375 0.6496687499999999 -1.25" stroke-width="1"></path></g></svg>
