<svg xmlns="http://www.w3.org/2000/svg" fill="none" viewBox="-0.5 -0.5 16 16" id="Phone--Streamline-Solar" height="16" width="16"><desc>Phone Streamline Icon: https://streamlinehq.com</desc><g id="Line Duotone/Call/Phone"><path id="Vector" stroke="#737373" d="M11.6726875 11.8531875c-1.018375 0.09493750000000001 -3.5088125 -0.0099375 -6.1630625000000006 -2.6490625000000003 -2.5029000000000003 -2.4886875 -2.95145 -4.6217375 -3.0077937500000003 -5.61311875" stroke-width="1"></path><path id="Vector_2" stroke="#737373" stroke-linecap="round" d="M10.0629375 8.3494375s-0.676625 0.6728125 -2.5235000000000003 -1.163625c-1.8469125 -1.83636875 -1.17025 -2.5091437500000002 -1.17025 -2.5091437500000002" stroke-width="1"></path><path id="Vector_3" stroke="#000000" d="m10.0629375 8.349375 0.2846875 -0.283c0.3935 -0.3913125 1.006875 -0.47168750000000004 1.5103749999999998 -0.198l1.1940625 0.649125c0.7668125000000001 0.41681250000000003 0.9358125 1.4384375 0.3365 2.034375l-0.8878750000000001 0.88275c-0.22575 0.2245 -0.505875 0.38856250000000003 -0.828 0.41856249999999995M2.50180625 3.59100625c-0.022025 -0.38751250000000004 0.1595875 -0.73683125 0.4306 -1.00630625l0.9810000000000001 -0.97543125c0.54656875 -0.5434625 1.46801875 -0.45931875 1.9448812500000001 0.17765625000000002l0.7880874999999999 1.0527499999999999c0.38531250000000006 0.51464375 0.34368750000000003 1.2196 -0.09793750000000001 1.6586875l-0.17925 0.17824375" stroke-width="1"></path></g></svg>