<svg xmlns="http://www.w3.org/2000/svg" fill="none" viewBox="-0.5 -0.5 16 16" id="Wi-Fi-Router--Streamline-Solar" height="16" width="16"><desc>Wi Fi Router Streamline Icon: https://streamlinehq.com</desc><g id="Line Duotone/Network IT Programming/Wi-Fi Router"><path id="Vector" fill="#737373" d="M4.375 9.375c0 0.3451875 -0.279825 0.625 -0.625 0.625s-0.625 -0.2798125 -0.625 -0.625 0.279825 -0.625 0.625 -0.625 0.625 0.2798125 0.625 0.625Z" stroke-width="1"></path><path id="Vector_2" fill="#737373" d="M6.25 9.375c0 0.3451875 -0.279825 0.625 -0.625 0.625s-0.625 -0.2798125 -0.625 -0.625 0.279825 -0.625 0.625 -0.625 0.625 0.2798125 0.625 0.625Z" stroke-width="1"></path><path id="Vector_3" stroke="#737373" stroke-linecap="round" d="M8.75 9.375h2.5" stroke-width="1"></path><path id="Vector_4" stroke="#737373" stroke-linecap="round" d="M10.7295625 3.3731375000000003C10.213375 2.1267875 8.9851875 1.25 7.552250000000001 1.25 6.119325 1.25 4.8911625 2.1267875 4.375 3.3731375000000003" stroke-width="1"></path><path id="Vector_5" stroke="#737373" stroke-linecap="round" d="M9.352875000000001 4.1613187499999995C9.1254375 3.3819187499999996 8.4055625 2.8125 7.5527500000000005 2.8125c-0.852875 0 -1.57275 0.5694187500000001 -1.8001875 1.3488187500000002" stroke-width="1"></path><path id="Vector_6" stroke="#000000" d="M1.25 9.375c0 -1.1784999999999999 0 -1.76775 0.36611875000000005 -2.133875C1.98223125 6.875 2.5714875 6.875 3.75 6.875h7.5c1.1784999999999999 0 1.76775 0 2.133875 0.366125C13.75 7.60725 13.75 8.1965 13.75 9.375c0 1.1784999999999999 0 1.76775 -0.366125 2.133875C13.01775 11.875 12.4285 11.875 11.25 11.875H3.75c-1.1785125 0 -1.76776875 0 -2.13388125 -0.366125C1.25 11.14275 1.25 10.5535 1.25 9.375Z" stroke-width="1"></path><path id="Vector_7" stroke="#000000" stroke-linecap="round" d="M4.375 6.875 1.875 2.5" stroke-width="1"></path><path id="Vector_8" stroke="#000000" stroke-linecap="round" d="m10.625 6.875 2.5 -4.375" stroke-width="1"></path><path id="Vector_9" fill="#000000" d="M8.1775 4.375c0 0.345175 -0.2798125 0.625 -0.625 0.625s-0.625 -0.279825 -0.625 -0.625 0.2798125 -0.625 0.625 -0.625 0.625 0.279825 0.625 0.625Z" stroke-width="1"></path></g></svg>
